<mxfile host="Electron" agent="Mozilla/5.0 (Windows NT 10.0; Win64; x64) AppleWebKit/537.36 (KHTML, like Gecko) draw.io/26.2.2 Chrome/134.0.6998.178 Electron/35.1.2 Safari/537.36" version="26.2.2">
  <diagram name="DFD" id="fMcih14MKUiU8jKwbxql">
    <mxGraphModel dx="1523" dy="452" grid="1" gridSize="10" guides="1" tooltips="1" connect="1" arrows="1" fold="1" page="1" pageScale="1" pageWidth="827" pageHeight="1169" math="0" shadow="0">
      <root>
        <mxCell id="0" />
        <mxCell id="1" parent="0" />
        <mxCell id="RZCJysPxcBfetju854Cx-23" value="" style="rounded=1;whiteSpace=wrap;html=1;fillColor=none;dashed=1;dashPattern=8 8;" parent="1" vertex="1">
          <mxGeometry x="-32.5" y="200" width="765" height="460" as="geometry" />
        </mxCell>
        <mxCell id="RZCJysPxcBfetju854Cx-57" value="" style="rounded=1;whiteSpace=wrap;html=1;fillColor=none;dashed=1;dashPattern=8 8;" parent="1" vertex="1">
          <mxGeometry x="-50" y="1695" width="1490" height="665" as="geometry" />
        </mxCell>
        <mxCell id="RZCJysPxcBfetju854Cx-39" value="" style="rounded=1;whiteSpace=wrap;html=1;fillColor=none;dashed=1;dashPattern=8 8;" parent="1" vertex="1">
          <mxGeometry x="-30" y="940" width="765" height="560" as="geometry" />
        </mxCell>
        <mxCell id="2" value="Пациент" style="shape=ellipse;whiteSpace=wrap;html=1;fillColor=#dae8fc;" parent="1" vertex="1">
          <mxGeometry x="-430" y="285" width="120" height="105" as="geometry" />
        </mxCell>
        <mxCell id="5" style="endArrow=block;html=1;entryX=0;entryY=0.5;entryDx=0;entryDy=0;" parent="1" source="2" target="RZCJysPxcBfetju854Cx-18" edge="1">
          <mxGeometry relative="1" as="geometry">
            <mxPoint x="140.00000000000023" y="335" as="targetPoint" />
          </mxGeometry>
        </mxCell>
        <mxCell id="RZCJysPxcBfetju854Cx-8" value="DFD №1 (level 1, to be): Запись пациента на приём" style="text;html=1;align=center;verticalAlign=middle;whiteSpace=wrap;rounded=0;fontStyle=1;fontSize=24;" parent="1" vertex="1">
          <mxGeometry x="80" y="100" width="545" height="30" as="geometry" />
        </mxCell>
        <mxCell id="RZCJysPxcBfetju854Cx-14" style="endArrow=block;html=1;entryX=-0.002;entryY=0.502;entryDx=0;entryDy=0;exitX=1;exitY=0.5;exitDx=0;exitDy=0;entryPerimeter=0;" parent="1" source="RZCJysPxcBfetju854Cx-18" target="RZCJysPxcBfetju854Cx-19" edge="1">
          <mxGeometry relative="1" as="geometry">
            <mxPoint x="350.0000000000002" y="335" as="sourcePoint" />
            <mxPoint x="510" y="335" as="targetPoint" />
          </mxGeometry>
        </mxCell>
        <mxCell id="RZCJysPxcBfetju854Cx-16" style="endArrow=block;html=1;entryX=0.46;entryY=-0.006;entryDx=0;entryDy=0;exitX=0.5;exitY=1;exitDx=0;exitDy=0;entryPerimeter=0;" parent="1" source="RZCJysPxcBfetju854Cx-19" target="RZCJysPxcBfetju854Cx-17" edge="1">
          <mxGeometry relative="1" as="geometry">
            <mxPoint x="615" y="400" as="sourcePoint" />
            <mxPoint x="615" y="490" as="targetPoint" />
          </mxGeometry>
        </mxCell>
        <mxCell id="RZCJysPxcBfetju854Cx-17" value="Журнал записи пациентов (Excel)" style="html=1;dashed=0;whiteSpace=wrap;shape=partialRectangle;right=0;" parent="1" vertex="1">
          <mxGeometry x="450" y="540" width="220" height="30" as="geometry" />
        </mxCell>
        <mxCell id="RZCJysPxcBfetju854Cx-18" value="&lt;b&gt;Процесс 1&lt;/b&gt;:&lt;div&gt;Администратор получает от пациента данные&lt;/div&gt;" style="html=1;dashed=0;whiteSpace=wrap;" parent="1" vertex="1">
          <mxGeometry x="60" y="278.75" width="200" height="112.5" as="geometry" />
        </mxCell>
        <mxCell id="RZCJysPxcBfetju854Cx-19" value="&lt;b&gt;Процесс 2&lt;/b&gt;:&lt;div&gt;Администратор вручную заносит данные в Excel-журнал записи.&lt;/div&gt;" style="html=1;dashed=0;whiteSpace=wrap;" parent="1" vertex="1">
          <mxGeometry x="440" y="278.75" width="220" height="111.25" as="geometry" />
        </mxCell>
        <mxCell id="RZCJysPxcBfetju854Cx-20" value="&lt;table&gt;&lt;tbody&gt;&lt;tr&gt;&lt;td data-end=&quot;661&quot; data-start=&quot;639&quot; class=&quot;max-w-[calc(var(--thread-content-max-width)*2/3)]&quot;&gt;&lt;/td&gt;&lt;/tr&gt;&lt;/tbody&gt;&lt;/table&gt;&lt;table&gt;&lt;tbody&gt;&lt;tr&gt;&lt;td data-end=&quot;705&quot; data-start=&quot;661&quot; class=&quot;max-w-[calc(var(--thread-content-max-width)*2/3)]&quot;&gt;ФИО, дата рождения, &lt;br&gt;телефон, цель визита&lt;/td&gt;&lt;/tr&gt;&lt;/tbody&gt;&lt;/table&gt;" style="text;html=1;align=center;verticalAlign=middle;resizable=0;points=[];autosize=1;strokeColor=none;fillColor=none;fontSize=16;" parent="1" vertex="1">
          <mxGeometry x="-270" y="270" width="190" height="60" as="geometry" />
        </mxCell>
        <mxCell id="RZCJysPxcBfetju854Cx-21" value="&lt;table&gt;&lt;tbody&gt;&lt;tr&gt;&lt;td data-end=&quot;733&quot; data-start=&quot;706&quot; class=&quot;max-w-[calc(var(--thread-content-max-width)*2/3)]&quot;&gt;&lt;/td&gt;&lt;/tr&gt;&lt;/tbody&gt;&lt;/table&gt;&lt;table&gt;&lt;tbody&gt;&lt;tr&gt;&lt;td data-end=&quot;763&quot; data-start=&quot;733&quot; class=&quot;max-w-[calc(var(--thread-content-max-width)*2/3)]&quot;&gt;Данные пациента &lt;br&gt;для записи&lt;/td&gt;&lt;/tr&gt;&lt;/tbody&gt;&lt;/table&gt;" style="text;html=1;align=center;verticalAlign=middle;resizable=0;points=[];autosize=1;strokeColor=none;fillColor=none;fontSize=16;" parent="1" vertex="1">
          <mxGeometry x="540" y="430" width="160" height="60" as="geometry" />
        </mxCell>
        <mxCell id="RZCJysPxcBfetju854Cx-22" value="Личные данные&lt;div&gt;пациента&lt;/div&gt;" style="text;html=1;align=center;verticalAlign=middle;resizable=0;points=[];autosize=1;strokeColor=none;fillColor=none;fontSize=16;" parent="1" vertex="1">
          <mxGeometry x="280" y="288.75" width="140" height="50" as="geometry" />
        </mxCell>
        <mxCell id="RZCJysPxcBfetju854Cx-24" value="DFD №2 (level 1, to be): Ведение и хранение медицинской карты" style="text;html=1;align=center;verticalAlign=middle;whiteSpace=wrap;rounded=0;fontStyle=1;fontSize=24;" parent="1" vertex="1">
          <mxGeometry x="127.5" y="850" width="450" height="30" as="geometry" />
        </mxCell>
        <mxCell id="RZCJysPxcBfetju854Cx-25" value="Пациент" style="shape=ellipse;whiteSpace=wrap;html=1;fillColor=#dae8fc;" parent="1" vertex="1">
          <mxGeometry x="-413" y="1010" width="120" height="105" as="geometry" />
        </mxCell>
        <mxCell id="RZCJysPxcBfetju854Cx-26" style="endArrow=block;html=1;entryX=0;entryY=0.5;entryDx=0;entryDy=0;" parent="1" edge="1" target="RZCJysPxcBfetju854Cx-28">
          <mxGeometry relative="1" as="geometry">
            <mxPoint x="80" y="1065" as="targetPoint" />
            <mxPoint x="-290" y="1067" as="sourcePoint" />
          </mxGeometry>
        </mxCell>
        <mxCell id="RZCJysPxcBfetju854Cx-27" value="Жалобы, анамнез" style="text;html=1;align=center;verticalAlign=middle;resizable=0;points=[];autosize=1;strokeColor=none;fillColor=none;fontSize=16;" parent="1" vertex="1">
          <mxGeometry x="-255" y="1030" width="160" height="30" as="geometry" />
        </mxCell>
        <mxCell id="RZCJysPxcBfetju854Cx-28" value="&lt;b&gt;Процесс 1&lt;/b&gt;:&lt;div&gt;Врач ведёт запись приёма: собирает анамнез и фиксирует жалобы&lt;/div&gt;" style="html=1;dashed=0;whiteSpace=wrap;" parent="1" vertex="1">
          <mxGeometry x="30" y="1010" width="200" height="112.5" as="geometry" />
        </mxCell>
        <mxCell id="RZCJysPxcBfetju854Cx-29" value="&lt;b&gt;Процесс 2&lt;/b&gt;:&lt;div&gt;Врач ставит делает заключение, включающее диагноз и рекомендации по лечению&lt;/div&gt;" style="html=1;dashed=0;whiteSpace=wrap;" parent="1" vertex="1">
          <mxGeometry x="470" y="1010" width="200" height="112.5" as="geometry" />
        </mxCell>
        <mxCell id="RZCJysPxcBfetju854Cx-30" value="Журнал приема (Excel)" style="html=1;dashed=0;whiteSpace=wrap;shape=partialRectangle;right=0;" parent="1" vertex="1">
          <mxGeometry x="50" y="1280" width="170" height="30" as="geometry" />
        </mxCell>
        <mxCell id="RZCJysPxcBfetju854Cx-31" style="endArrow=block;html=1;entryX=0.526;entryY=0.011;entryDx=0;entryDy=0;exitX=0.5;exitY=1;exitDx=0;exitDy=0;entryPerimeter=0;" parent="1" target="RZCJysPxcBfetju854Cx-30" edge="1">
          <mxGeometry relative="1" as="geometry">
            <mxPoint x="139.32999999999998" y="1122.5" as="sourcePoint" />
            <mxPoint x="140.32999999999998" y="1272.5" as="targetPoint" />
          </mxGeometry>
        </mxCell>
        <mxCell id="RZCJysPxcBfetju854Cx-32" style="endArrow=block;html=1;entryX=0.474;entryY=-0.019;entryDx=0;entryDy=0;exitX=0.471;exitY=1;exitDx=0;exitDy=0;exitPerimeter=0;entryPerimeter=0;" parent="1" source="RZCJysPxcBfetju854Cx-29" target="RZCJysPxcBfetju854Cx-33" edge="1">
          <mxGeometry relative="1" as="geometry">
            <mxPoint x="540.3299999999999" y="1122.5" as="sourcePoint" />
            <mxPoint x="540" y="1280" as="targetPoint" />
          </mxGeometry>
        </mxCell>
        <mxCell id="RZCJysPxcBfetju854Cx-33" value="Хранилище файлов&amp;nbsp; (PDF, Word или JPG) с медицинскими картами" style="html=1;dashed=0;whiteSpace=wrap;shape=partialRectangle;right=0;" parent="1" vertex="1">
          <mxGeometry x="485" y="1280" width="170" height="60" as="geometry" />
        </mxCell>
        <mxCell id="RZCJysPxcBfetju854Cx-34" style="endArrow=block;html=1;entryX=-0.001;entryY=0.523;entryDx=0;entryDy=0;exitX=1.001;exitY=0.525;exitDx=0;exitDy=0;entryPerimeter=0;exitPerimeter=0;" parent="1" source="RZCJysPxcBfetju854Cx-28" target="RZCJysPxcBfetju854Cx-29" edge="1">
          <mxGeometry relative="1" as="geometry">
            <mxPoint x="290.33" y="1070" as="sourcePoint" />
            <mxPoint x="290" y="1227.5" as="targetPoint" />
          </mxGeometry>
        </mxCell>
        <mxCell id="RZCJysPxcBfetju854Cx-35" value="Анамнез,&lt;div&gt;жалобы&lt;/div&gt;" style="text;html=1;align=center;verticalAlign=middle;resizable=0;points=[];autosize=1;strokeColor=none;fillColor=none;fontSize=16;" parent="1" vertex="1">
          <mxGeometry x="300" y="1020" width="90" height="50" as="geometry" />
        </mxCell>
        <mxCell id="RZCJysPxcBfetju854Cx-36" value="Анамнез,&lt;div&gt;жалобы&lt;/div&gt;" style="text;html=1;align=center;verticalAlign=middle;resizable=0;points=[];autosize=1;strokeColor=none;fillColor=none;fontSize=16;" parent="1" vertex="1">
          <mxGeometry x="140" y="1180" width="90" height="50" as="geometry" />
        </mxCell>
        <mxCell id="RZCJysPxcBfetju854Cx-38" value="Файлы с&amp;nbsp;&lt;div&gt;заключением&lt;/div&gt;" style="text;html=1;align=center;verticalAlign=middle;resizable=0;points=[];autosize=1;strokeColor=none;fillColor=none;fontSize=16;" parent="1" vertex="1">
          <mxGeometry x="560" y="1180" width="120" height="50" as="geometry" />
        </mxCell>
        <mxCell id="RZCJysPxcBfetju854Cx-40" value="DFD №3 (level 1, to be): Приём оплаты и финансовый учёт" style="text;html=1;align=center;verticalAlign=middle;whiteSpace=wrap;rounded=0;fontStyle=1;fontSize=24;" parent="1" vertex="1">
          <mxGeometry x="125" y="1600" width="450" height="30" as="geometry" />
        </mxCell>
        <mxCell id="RZCJysPxcBfetju854Cx-41" value="Пациент" style="shape=ellipse;whiteSpace=wrap;html=1;fillColor=#dae8fc;" parent="1" vertex="1">
          <mxGeometry x="-413" y="1740" width="120" height="105" as="geometry" />
        </mxCell>
        <mxCell id="RZCJysPxcBfetju854Cx-42" style="endArrow=block;html=1;entryX=0;entryY=0.5;entryDx=0;entryDy=0;" parent="1" edge="1">
          <mxGeometry relative="1" as="geometry">
            <mxPoint x="80" y="1795" as="targetPoint" />
            <mxPoint x="-290" y="1797" as="sourcePoint" />
          </mxGeometry>
        </mxCell>
        <mxCell id="RZCJysPxcBfetju854Cx-43" value="Данные банковской&lt;div&gt;карты&lt;/div&gt;" style="text;html=1;align=center;verticalAlign=middle;resizable=0;points=[];autosize=1;strokeColor=none;fillColor=none;fontSize=16;" parent="1" vertex="1">
          <mxGeometry x="-240" y="1735" width="170" height="50" as="geometry" />
        </mxCell>
        <mxCell id="RZCJysPxcBfetju854Cx-44" value="&lt;b&gt;Процесс 1&lt;/b&gt;:&lt;div&gt;Пациент оплачивает услуги.&lt;/div&gt;" style="html=1;dashed=0;whiteSpace=wrap;" parent="1" vertex="1">
          <mxGeometry x="80" y="1740" width="200" height="112.5" as="geometry" />
        </mxCell>
        <mxCell id="RZCJysPxcBfetju854Cx-45" value="&lt;b&gt;Процесс 2&lt;/b&gt;:&lt;div&gt;Кассир пробивает чек на ККМ&lt;/div&gt;" style="html=1;dashed=0;whiteSpace=wrap;" parent="1" vertex="1">
          <mxGeometry x="580" y="1740" width="200" height="112.5" as="geometry" />
        </mxCell>
        <mxCell id="RZCJysPxcBfetju854Cx-46" style="endArrow=block;html=1;entryX=-0.01;entryY=0.539;entryDx=0;entryDy=0;exitX=1.001;exitY=0.525;exitDx=0;exitDy=0;entryPerimeter=0;exitPerimeter=0;" parent="1" target="RZCJysPxcBfetju854Cx-45" edge="1">
          <mxGeometry relative="1" as="geometry">
            <mxPoint x="280" y="1800" as="sourcePoint" />
            <mxPoint x="400" y="1800" as="targetPoint" />
          </mxGeometry>
        </mxCell>
        <mxCell id="RZCJysPxcBfetju854Cx-47" value="Статус оплаты" style="text;html=1;align=center;verticalAlign=middle;resizable=0;points=[];autosize=1;strokeColor=none;fillColor=none;fontSize=16;" parent="1" vertex="1">
          <mxGeometry x="365" y="1760" width="130" height="30" as="geometry" />
        </mxCell>
        <mxCell id="RZCJysPxcBfetju854Cx-48" value="1С" style="html=1;dashed=0;whiteSpace=wrap;shape=partialRectangle;right=0;" parent="1" vertex="1">
          <mxGeometry x="590" y="2010" width="170" height="30" as="geometry" />
        </mxCell>
        <mxCell id="RZCJysPxcBfetju854Cx-49" style="endArrow=block;html=1;entryX=0.526;entryY=0.011;entryDx=0;entryDy=0;exitX=0.5;exitY=1;exitDx=0;exitDy=0;entryPerimeter=0;" parent="1" target="RZCJysPxcBfetju854Cx-48" edge="1">
          <mxGeometry relative="1" as="geometry">
            <mxPoint x="679.3299999999999" y="1852.5" as="sourcePoint" />
            <mxPoint x="680.3299999999999" y="2002.5" as="targetPoint" />
          </mxGeometry>
        </mxCell>
        <mxCell id="RZCJysPxcBfetju854Cx-50" value="Данные&amp;nbsp;&lt;div&gt;&lt;span style=&quot;background-color: transparent; color: light-dark(rgb(0, 0, 0), rgb(255, 255, 255));&quot;&gt;оплаты&lt;/span&gt;&lt;/div&gt;" style="text;html=1;align=center;verticalAlign=middle;resizable=0;points=[];autosize=1;strokeColor=none;fillColor=none;fontSize=16;" parent="1" vertex="1">
          <mxGeometry x="680" y="1925" width="90" height="50" as="geometry" />
        </mxCell>
        <mxCell id="RZCJysPxcBfetju854Cx-51" value="Excel-таблица учёта" style="html=1;dashed=0;whiteSpace=wrap;shape=partialRectangle;right=0;" parent="1" vertex="1">
          <mxGeometry x="1170" y="1781.25" width="170" height="30" as="geometry" />
        </mxCell>
        <mxCell id="RZCJysPxcBfetju854Cx-52" style="endArrow=block;html=1;exitX=1;exitY=0.5;exitDx=0;exitDy=0;" parent="1" source="RZCJysPxcBfetju854Cx-45" target="RZCJysPxcBfetju854Cx-51" edge="1">
          <mxGeometry relative="1" as="geometry">
            <mxPoint x="529.3299999999999" y="1862.5" as="sourcePoint" />
            <mxPoint x="389" y="2030" as="targetPoint" />
          </mxGeometry>
        </mxCell>
        <mxCell id="RZCJysPxcBfetju854Cx-53" value="Данные&amp;nbsp;&lt;div&gt;&lt;span style=&quot;background-color: transparent; color: light-dark(rgb(0, 0, 0), rgb(255, 255, 255));&quot;&gt;оплаты&lt;/span&gt;&lt;/div&gt;" style="text;html=1;align=center;verticalAlign=middle;resizable=0;points=[];autosize=1;strokeColor=none;fillColor=none;fontSize=16;" parent="1" vertex="1">
          <mxGeometry x="940" y="1740" width="90" height="50" as="geometry" />
        </mxCell>
        <mxCell id="RZCJysPxcBfetju854Cx-54" value="&lt;b&gt;Процесс 3&lt;/b&gt;:&lt;div&gt;Бухгалтер формирует отчетность и начисления&lt;/div&gt;" style="html=1;dashed=0;whiteSpace=wrap;" parent="1" vertex="1">
          <mxGeometry x="590" y="2220" width="200" height="112.5" as="geometry" />
        </mxCell>
        <mxCell id="RZCJysPxcBfetju854Cx-55" style="endArrow=block;html=1;entryX=0.45;entryY=0;entryDx=0;entryDy=0;exitX=0.529;exitY=1.002;exitDx=0;exitDy=0;entryPerimeter=0;exitPerimeter=0;startArrow=classic;startFill=1;" parent="1" source="RZCJysPxcBfetju854Cx-48" target="RZCJysPxcBfetju854Cx-54" edge="1">
          <mxGeometry relative="1" as="geometry">
            <mxPoint x="689.3299999999999" y="1862.5" as="sourcePoint" />
            <mxPoint x="549" y="2030" as="targetPoint" />
          </mxGeometry>
        </mxCell>
        <mxCell id="RZCJysPxcBfetju854Cx-56" value="Данные&amp;nbsp;&lt;div&gt;&lt;span style=&quot;background-color: transparent; color: light-dark(rgb(0, 0, 0), rgb(255, 255, 255));&quot;&gt;оплаты в формате&amp;nbsp;&lt;/span&gt;&lt;/div&gt;&lt;div&gt;&lt;span style=&quot;background-color: transparent; color: light-dark(rgb(0, 0, 0), rgb(255, 255, 255));&quot;&gt;бухгалтерии&lt;/span&gt;&lt;/div&gt;" style="text;html=1;align=center;verticalAlign=middle;resizable=0;points=[];autosize=1;strokeColor=none;fillColor=none;fontSize=16;" parent="1" vertex="1">
          <mxGeometry x="675" y="2090" width="170" height="70" as="geometry" />
        </mxCell>
        <mxCell id="RZCJysPxcBfetju854Cx-58" value="DFD №4 (level 1, to be): Обработка лабораторных анализов" style="text;html=1;align=center;verticalAlign=middle;whiteSpace=wrap;rounded=0;fontStyle=1;fontSize=24;" parent="1" vertex="1">
          <mxGeometry x="120" y="2520" width="450" height="30" as="geometry" />
        </mxCell>
        <mxCell id="RZCJysPxcBfetju854Cx-59" value="Лаборатория" style="shape=ellipse;whiteSpace=wrap;html=1;fillColor=#fff2cc;strokeColor=#d6b656;" parent="1" vertex="1">
          <mxGeometry x="-413" y="2795" width="120" height="105" as="geometry" />
        </mxCell>
        <mxCell id="RZCJysPxcBfetju854Cx-60" style="endArrow=block;html=1;entryX=0;entryY=0.5;entryDx=0;entryDy=0;" parent="1" edge="1">
          <mxGeometry relative="1" as="geometry">
            <mxPoint x="80" y="2850" as="targetPoint" />
            <mxPoint x="-290" y="2852" as="sourcePoint" />
          </mxGeometry>
        </mxCell>
        <mxCell id="RZCJysPxcBfetju854Cx-61" value="&amp;nbsp;Результаты анализов &lt;br&gt;(PDF, Excel)" style="text;html=1;align=center;verticalAlign=middle;resizable=0;points=[];autosize=1;strokeColor=none;fillColor=none;fontSize=16;" parent="1" vertex="1">
          <mxGeometry x="-250" y="2790" width="190" height="50" as="geometry" />
        </mxCell>
        <mxCell id="RZCJysPxcBfetju854Cx-62" value="&lt;b&gt;Процесс 1&lt;/b&gt;:&lt;div&gt;Прием результатов анализов&lt;/div&gt;" style="html=1;dashed=0;whiteSpace=wrap;" parent="1" vertex="1">
          <mxGeometry x="80" y="2787.5" width="200" height="112.5" as="geometry" />
        </mxCell>
        <mxCell id="RZCJysPxcBfetju854Cx-63" value="Хранилище файлов&amp;nbsp; (PDF, Word или JPG) с результатами анализов" style="html=1;dashed=0;whiteSpace=wrap;shape=partialRectangle;right=0;" parent="1" vertex="1">
          <mxGeometry x="267.5" y="3060" width="170" height="60" as="geometry" />
        </mxCell>
        <mxCell id="RZCJysPxcBfetju854Cx-64" style="endArrow=block;html=1;entryX=0.5;entryY=0;entryDx=0;entryDy=0;exitX=0.529;exitY=1.002;exitDx=0;exitDy=0;exitPerimeter=0;" parent="1" target="RZCJysPxcBfetju854Cx-63" edge="1">
          <mxGeometry relative="1" as="geometry">
            <mxPoint x="179.38" y="2900" as="sourcePoint" />
            <mxPoint x="179.38" y="3030" as="targetPoint" />
          </mxGeometry>
        </mxCell>
        <mxCell id="RZCJysPxcBfetju854Cx-65" value="Файлы" style="text;html=1;align=center;verticalAlign=middle;resizable=0;points=[];autosize=1;strokeColor=none;fillColor=none;fontSize=16;" parent="1" vertex="1">
          <mxGeometry x="180" y="2971" width="70" height="30" as="geometry" />
        </mxCell>
        <mxCell id="RZCJysPxcBfetju854Cx-66" value="&lt;b&gt;Процесс 2&lt;/b&gt;:&lt;div&gt;&lt;div&gt;Врач просматривает файлы с анализами и&amp;nbsp;&lt;span style=&quot;background-color: transparent; color: light-dark(rgb(0, 0, 0), rgb(255, 255, 255));&quot;&gt;вносит в медкарту.&lt;/span&gt;&lt;/div&gt;&lt;/div&gt;" style="html=1;dashed=0;whiteSpace=wrap;" parent="1" vertex="1">
          <mxGeometry x="465" y="2780" width="200" height="112.5" as="geometry" />
        </mxCell>
        <mxCell id="RZCJysPxcBfetju854Cx-67" style="endArrow=block;html=1;entryX=0.5;entryY=1;entryDx=0;entryDy=0;exitX=0.662;exitY=0;exitDx=0;exitDy=0;exitPerimeter=0;" parent="1" source="RZCJysPxcBfetju854Cx-63" target="RZCJysPxcBfetju854Cx-66" edge="1">
          <mxGeometry relative="1" as="geometry">
            <mxPoint x="189.38" y="2910" as="sourcePoint" />
            <mxPoint x="363" y="3070" as="targetPoint" />
          </mxGeometry>
        </mxCell>
        <mxCell id="RZCJysPxcBfetju854Cx-68" value="Файлы" style="text;html=1;align=center;verticalAlign=middle;resizable=0;points=[];autosize=1;strokeColor=none;fillColor=none;fontSize=16;" parent="1" vertex="1">
          <mxGeometry x="395" y="2960" width="70" height="30" as="geometry" />
        </mxCell>
        <mxCell id="RZCJysPxcBfetju854Cx-69" value="Хранилище файлов&amp;nbsp; (PDF, Word или JPG) с медицинскими картами" style="html=1;dashed=0;whiteSpace=wrap;shape=partialRectangle;right=0;" parent="1" vertex="1">
          <mxGeometry x="732.5" y="3060" width="170" height="60" as="geometry" />
        </mxCell>
        <mxCell id="RZCJysPxcBfetju854Cx-70" style="endArrow=block;html=1;entryX=0.25;entryY=0;entryDx=0;entryDy=0;exitX=0.529;exitY=1.002;exitDx=0;exitDy=0;exitPerimeter=0;" parent="1" target="RZCJysPxcBfetju854Cx-69" edge="1">
          <mxGeometry relative="1" as="geometry">
            <mxPoint x="596.38" y="2892.5" as="sourcePoint" />
            <mxPoint x="770" y="3052.5" as="targetPoint" />
          </mxGeometry>
        </mxCell>
        <mxCell id="RZCJysPxcBfetju854Cx-71" value="Данные с&amp;nbsp;&lt;div&gt;результатами анализов&lt;/div&gt;" style="text;html=1;align=center;verticalAlign=middle;resizable=0;points=[];autosize=1;strokeColor=none;fillColor=none;fontSize=16;" parent="1" vertex="1">
          <mxGeometry x="635" y="2950" width="200" height="50" as="geometry" />
        </mxCell>
        <mxCell id="RZCJysPxcBfetju854Cx-72" value="" style="rounded=1;whiteSpace=wrap;html=1;fillColor=none;dashed=1;dashPattern=8 8;" parent="1" vertex="1">
          <mxGeometry x="-60" y="2630" width="1020" height="665" as="geometry" />
        </mxCell>
        <mxCell id="PrAANzAWDWMbfgYv_Zwm-5" value="[Добавить тег PII]&lt;div&gt;[Шифровать при передаче]&lt;/div&gt;" style="text;html=1;align=center;verticalAlign=middle;resizable=0;points=[];autosize=1;strokeColor=none;fillColor=none;fontSize=12;" vertex="1" parent="1">
          <mxGeometry x="265" y="345" width="170" height="40" as="geometry" />
        </mxCell>
        <mxCell id="PrAANzAWDWMbfgYv_Zwm-6" value="&lt;font face=&quot;Helvetica&quot; style=&quot;font-size: 12px;&quot;&gt;[Зашифровать в покое]&lt;/font&gt;&lt;div&gt;&lt;font face=&quot;Helvetica&quot; style=&quot;font-size: 12px;&quot;&gt;[&lt;span style=&quot;background-color: transparent; color: light-dark(rgb(0, 0, 0), rgb(255, 255, 255));&quot;&gt;RBAC → Администратор&lt;/span&gt;&lt;code style=&quot;background-color: transparent; color: light-dark(rgb(0, 0, 0), rgb(255, 255, 255));&quot; data-end=&quot;630&quot; data-start=&quot;620&quot;&gt;]&lt;/code&gt;&lt;/font&gt;&lt;/div&gt;&lt;div&gt;&lt;code style=&quot;background-color: transparent; color: light-dark(rgb(0, 0, 0), rgb(255, 255, 255));&quot; data-end=&quot;630&quot; data-start=&quot;620&quot;&gt;&lt;font face=&quot;Helvetica&quot; style=&quot;font-size: 12px;&quot;&gt;[Журналировать доступ к файлу]&lt;/font&gt;&lt;/code&gt;&lt;/div&gt;&lt;div&gt;&lt;code style=&quot;background-color: transparent; color: light-dark(rgb(0, 0, 0), rgb(255, 255, 255));&quot; data-end=&quot;630&quot; data-start=&quot;620&quot;&gt;&lt;font face=&quot;Helvetica&quot; style=&quot;font-size: 12px;&quot;&gt;[Риск:&amp;nbsp;нет резервного копирования]&lt;/font&gt;&lt;/code&gt;&lt;/div&gt;" style="text;html=1;align=center;verticalAlign=middle;resizable=0;points=[];autosize=1;strokeColor=none;fillColor=none;fontSize=16;" vertex="1" parent="1">
          <mxGeometry x="440" y="570" width="220" height="90" as="geometry" />
        </mxCell>
        <mxCell id="PrAANzAWDWMbfgYv_Zwm-9" value="&lt;div&gt;[Добавить тег PII]&lt;/div&gt;&lt;div&gt;[Шифровать при передаче]&lt;/div&gt;&lt;div&gt;[Логировать факт внесения]&lt;/div&gt;" style="text;html=1;align=center;verticalAlign=middle;resizable=0;points=[];autosize=1;strokeColor=none;fillColor=none;fontSize=12;" vertex="1" parent="1">
          <mxGeometry x="370" y="430" width="180" height="60" as="geometry" />
        </mxCell>
        <mxCell id="PrAANzAWDWMbfgYv_Zwm-11" value="&lt;div&gt;[Добавить тег PHI]&lt;/div&gt;&lt;div&gt;[Шифровать при передаче]&lt;/div&gt;" style="text;html=1;align=center;verticalAlign=middle;resizable=0;points=[];autosize=1;strokeColor=none;fillColor=none;fontSize=12;" vertex="1" parent="1">
          <mxGeometry x="255" y="1080" width="170" height="40" as="geometry" />
        </mxCell>
        <mxCell id="PrAANzAWDWMbfgYv_Zwm-12" value="&lt;div&gt;[Добавить тег PHI]&lt;/div&gt;&lt;div&gt;[Шифровать при передаче]&lt;/div&gt;" style="text;html=1;align=center;verticalAlign=middle;resizable=0;points=[];autosize=1;strokeColor=none;fillColor=none;fontSize=12;" vertex="1" parent="1">
          <mxGeometry x="395" y="1180" width="170" height="40" as="geometry" />
        </mxCell>
        <mxCell id="PrAANzAWDWMbfgYv_Zwm-13" value="&lt;div&gt;[Добавить тег PHI]&lt;/div&gt;&lt;div&gt;[Шифровать при передаче]&lt;/div&gt;" style="text;html=1;align=center;verticalAlign=middle;resizable=0;points=[];autosize=1;strokeColor=none;fillColor=none;fontSize=12;" vertex="1" parent="1">
          <mxGeometry x="-20" y="1170" width="170" height="40" as="geometry" />
        </mxCell>
        <mxCell id="PrAANzAWDWMbfgYv_Zwm-14" value="&lt;font face=&quot;Helvetica&quot; style=&quot;font-size: 12px;&quot;&gt;[Зашифровать в покое]&lt;/font&gt;&lt;div&gt;&lt;font face=&quot;Helvetica&quot; style=&quot;font-size: 12px;&quot;&gt;[&lt;span style=&quot;background-color: transparent; color: light-dark(rgb(0, 0, 0), rgb(255, 255, 255));&quot;&gt;RBAC → Врач&lt;/span&gt;&lt;code style=&quot;background-color: transparent; color: light-dark(rgb(0, 0, 0), rgb(255, 255, 255));&quot; data-end=&quot;630&quot; data-start=&quot;620&quot;&gt;]&lt;/code&gt;&lt;/font&gt;&lt;/div&gt;&lt;div&gt;&lt;font face=&quot;Helvetica&quot; style=&quot;font-size: 12px;&quot;&gt;&lt;code style=&quot;background-color: transparent; color: light-dark(rgb(0, 0, 0), rgb(255, 255, 255));&quot; data-end=&quot;630&quot; data-start=&quot;620&quot;&gt;[&lt;/code&gt;&lt;/font&gt;&lt;span style=&quot;background-color: transparent; font-size: 12px;&quot;&gt;&lt;font face=&quot;monospace&quot;&gt;Логировать изменения и чтение&lt;/font&gt;&lt;/span&gt;&lt;span style=&quot;background-color: transparent; color: light-dark(rgb(0, 0, 0), rgb(255, 255, 255)); font-size: 12px;&quot;&gt;]&lt;/span&gt;&lt;/div&gt;&lt;div&gt;&lt;code style=&quot;background-color: transparent; color: light-dark(rgb(0, 0, 0), rgb(255, 255, 255));&quot; data-end=&quot;630&quot; data-start=&quot;620&quot;&gt;&lt;font face=&quot;Helvetica&quot; style=&quot;font-size: 12px;&quot;&gt;[Журналировать доступ к файлу]&lt;/font&gt;&lt;/code&gt;&lt;/div&gt;&lt;div&gt;&lt;code style=&quot;background-color: transparent; color: light-dark(rgb(0, 0, 0), rgb(255, 255, 255));&quot; data-end=&quot;630&quot; data-start=&quot;620&quot;&gt;&lt;font face=&quot;Helvetica&quot; style=&quot;font-size: 12px;&quot;&gt;[&lt;/font&gt;&lt;/code&gt;&lt;span style=&quot;background-color: transparent; font-size: 12px;&quot;&gt;Добавить теги &quot;Чувствительные данные&quot;, &quot;PHI&quot;&lt;/span&gt;&lt;span style=&quot;font-size: 12px; background-color: transparent; color: light-dark(rgb(0, 0, 0), rgb(255, 255, 255));&quot;&gt;]&lt;/span&gt;&lt;/div&gt;&lt;div&gt;&lt;span style=&quot;font-size: 12px; background-color: transparent; color: light-dark(rgb(0, 0, 0), rgb(255, 255, 255));&quot;&gt;[&lt;/span&gt;&lt;span style=&quot;background-color: transparent; font-size: 12px;&quot;&gt;Обозначить необходимость архивации по сроку&lt;/span&gt;&lt;span style=&quot;background-color: transparent; color: light-dark(rgb(0, 0, 0), rgb(255, 255, 255)); font-size: 12px;&quot;&gt;]&lt;/span&gt;&lt;/div&gt;&lt;div&gt;&lt;code style=&quot;background-color: transparent; color: light-dark(rgb(0, 0, 0), rgb(255, 255, 255));&quot; data-end=&quot;630&quot; data-start=&quot;620&quot;&gt;&lt;font face=&quot;Helvetica&quot; style=&quot;font-size: 12px;&quot;&gt;[Риск:&amp;nbsp;нет резервного копирования]&lt;/font&gt;&lt;/code&gt;&lt;/div&gt;" style="text;html=1;align=center;verticalAlign=middle;resizable=0;points=[];autosize=1;strokeColor=none;fillColor=none;fontSize=16;" vertex="1" parent="1">
          <mxGeometry x="-15" y="1310" width="300" height="150" as="geometry" />
        </mxCell>
        <mxCell id="PrAANzAWDWMbfgYv_Zwm-15" value="&lt;font face=&quot;Helvetica&quot; style=&quot;font-size: 12px;&quot;&gt;[Зашифровать в покое]&lt;/font&gt;&lt;div&gt;&lt;font face=&quot;Helvetica&quot; style=&quot;font-size: 12px;&quot;&gt;[&lt;span style=&quot;background-color: transparent; color: light-dark(rgb(0, 0, 0), rgb(255, 255, 255));&quot;&gt;RBAC → Врач&lt;/span&gt;&lt;code style=&quot;background-color: transparent; color: light-dark(rgb(0, 0, 0), rgb(255, 255, 255));&quot; data-end=&quot;630&quot; data-start=&quot;620&quot;&gt;]&lt;/code&gt;&lt;/font&gt;&lt;/div&gt;&lt;div&gt;&lt;font face=&quot;Helvetica&quot; style=&quot;font-size: 12px;&quot;&gt;&lt;code style=&quot;background-color: transparent; color: light-dark(rgb(0, 0, 0), rgb(255, 255, 255));&quot; data-end=&quot;630&quot; data-start=&quot;620&quot;&gt;[&lt;/code&gt;&lt;/font&gt;&lt;span style=&quot;background-color: transparent; font-size: 12px;&quot;&gt;&lt;font face=&quot;monospace&quot;&gt;Логировать изменения и чтение&lt;/font&gt;&lt;/span&gt;&lt;span style=&quot;background-color: transparent; color: light-dark(rgb(0, 0, 0), rgb(255, 255, 255)); font-size: 12px;&quot;&gt;]&lt;/span&gt;&lt;/div&gt;&lt;div&gt;&lt;code style=&quot;background-color: transparent; color: light-dark(rgb(0, 0, 0), rgb(255, 255, 255));&quot; data-end=&quot;630&quot; data-start=&quot;620&quot;&gt;&lt;font face=&quot;Helvetica&quot; style=&quot;font-size: 12px;&quot;&gt;[Журналировать доступ к файлу]&lt;/font&gt;&lt;/code&gt;&lt;/div&gt;&lt;div&gt;&lt;code style=&quot;background-color: transparent; color: light-dark(rgb(0, 0, 0), rgb(255, 255, 255));&quot; data-end=&quot;630&quot; data-start=&quot;620&quot;&gt;&lt;font face=&quot;Helvetica&quot; style=&quot;font-size: 12px;&quot;&gt;[&lt;/font&gt;&lt;/code&gt;&lt;span style=&quot;background-color: transparent; font-size: 12px;&quot;&gt;Добавить теги &quot;Чувствительные данные&quot;, &quot;PHI&quot;&lt;/span&gt;&lt;span style=&quot;font-size: 12px; background-color: transparent; color: light-dark(rgb(0, 0, 0), rgb(255, 255, 255));&quot;&gt;]&lt;/span&gt;&lt;/div&gt;&lt;div&gt;&lt;span style=&quot;font-size: 12px; background-color: transparent; color: light-dark(rgb(0, 0, 0), rgb(255, 255, 255));&quot;&gt;[&lt;/span&gt;&lt;span style=&quot;background-color: transparent; font-size: 12px;&quot;&gt;Обозначить необходимость архивации по сроку&lt;/span&gt;&lt;span style=&quot;background-color: transparent; color: light-dark(rgb(0, 0, 0), rgb(255, 255, 255)); font-size: 12px;&quot;&gt;]&lt;/span&gt;&lt;/div&gt;&lt;div&gt;&lt;code style=&quot;background-color: transparent; color: light-dark(rgb(0, 0, 0), rgb(255, 255, 255));&quot; data-end=&quot;630&quot; data-start=&quot;620&quot;&gt;&lt;font face=&quot;Helvetica&quot; style=&quot;font-size: 12px;&quot;&gt;[Риск:&amp;nbsp;нет резервного копирования]&lt;/font&gt;&lt;/code&gt;&lt;/div&gt;" style="text;html=1;align=center;verticalAlign=middle;resizable=0;points=[];autosize=1;strokeColor=none;fillColor=none;fontSize=16;" vertex="1" parent="1">
          <mxGeometry x="400" y="1340" width="300" height="150" as="geometry" />
        </mxCell>
        <mxCell id="PrAANzAWDWMbfgYv_Zwm-16" value="[Тег: Финансовые данные, PII]&lt;div&gt;[Шифрование при передаче]&lt;/div&gt;&lt;div&gt;[Аудит транзакций]&lt;/div&gt;" style="text;html=1;align=center;verticalAlign=middle;resizable=0;points=[];autosize=1;strokeColor=none;fillColor=none;fontSize=16;" vertex="1" parent="1">
          <mxGeometry x="-260" y="1820" width="250" height="70" as="geometry" />
        </mxCell>
        <mxCell id="PrAANzAWDWMbfgYv_Zwm-17" value="[Тег: Финансовые данные, PII]&lt;div&gt;[Шифрование при передаче]&lt;/div&gt;&lt;div&gt;[Аудит транзакций]&lt;/div&gt;" style="text;html=1;align=center;verticalAlign=middle;resizable=0;points=[];autosize=1;strokeColor=none;fillColor=none;fontSize=12;" vertex="1" parent="1">
          <mxGeometry x="335" y="1811.25" width="190" height="60" as="geometry" />
        </mxCell>
        <mxCell id="PrAANzAWDWMbfgYv_Zwm-18" value="[Тег: Финансовые данные, PII]&lt;div&gt;[Шифрование при передаче]&lt;/div&gt;&lt;div&gt;[Аудит транзакций]&lt;/div&gt;" style="text;html=1;align=center;verticalAlign=middle;resizable=0;points=[];autosize=1;strokeColor=none;fillColor=none;fontSize=12;" vertex="1" parent="1">
          <mxGeometry x="890" y="1806.25" width="190" height="60" as="geometry" />
        </mxCell>
        <mxCell id="PrAANzAWDWMbfgYv_Zwm-19" value="[Тег: Финансовые данные, PII]&lt;div&gt;[Шифрование при передаче]&lt;/div&gt;&lt;div&gt;[Аудит транзакций]&lt;/div&gt;" style="text;html=1;align=center;verticalAlign=middle;resizable=0;points=[];autosize=1;strokeColor=none;fillColor=none;fontSize=12;" vertex="1" parent="1">
          <mxGeometry x="495" y="1920" width="190" height="60" as="geometry" />
        </mxCell>
        <mxCell id="PrAANzAWDWMbfgYv_Zwm-20" value="[Тег: Финансовые данные, PII]&lt;div&gt;[Шифрование при передаче]&lt;/div&gt;&lt;div&gt;[Аудит транзакций]&lt;/div&gt;" style="text;html=1;align=center;verticalAlign=middle;resizable=0;points=[];autosize=1;strokeColor=none;fillColor=none;fontSize=12;" vertex="1" parent="1">
          <mxGeometry x="485" y="2095" width="190" height="60" as="geometry" />
        </mxCell>
        <mxCell id="PrAANzAWDWMbfgYv_Zwm-21" value="[Хранение в защищённой среде]&lt;div&gt;[Интеграция с ККМ по безопасному каналу]&lt;/div&gt;" style="text;html=1;align=center;verticalAlign=middle;resizable=0;points=[];autosize=1;strokeColor=none;fillColor=none;fontSize=12;" vertex="1" parent="1">
          <mxGeometry x="760" y="2005" width="270" height="40" as="geometry" />
        </mxCell>
        <mxCell id="PrAANzAWDWMbfgYv_Zwm-22" value="[«Ручной дублирующий учёт» — устаревшая практика]&lt;div&gt;[Заменить Excel на защищённую систему учёта]&lt;/div&gt;&lt;div&gt;[Добавить: «Журналирование изменений»]&lt;/div&gt;" style="text;html=1;align=center;verticalAlign=middle;resizable=0;points=[];autosize=1;strokeColor=none;fillColor=none;fontSize=12;" vertex="1" parent="1">
          <mxGeometry x="1110" y="1811.25" width="330" height="60" as="geometry" />
        </mxCell>
        <mxCell id="PrAANzAWDWMbfgYv_Zwm-25" value="[Теги: PHI, Sensitive]&lt;div&gt;[Шифрование при передаче (от лаборатории)]&lt;/div&gt;&lt;div&gt;[Валидация источника]&lt;/div&gt;&lt;div&gt;[Логирование импорта в систему]&lt;/div&gt;" style="text;html=1;align=center;verticalAlign=middle;resizable=0;points=[];autosize=1;strokeColor=none;fillColor=none;fontSize=12;" vertex="1" parent="1">
          <mxGeometry x="-300" y="2860" width="280" height="70" as="geometry" />
        </mxCell>
        <mxCell id="PrAANzAWDWMbfgYv_Zwm-26" value="[Зашифровать и ограничить доступ по ролям]&lt;div&gt;[Теги: PHI, Sensitive]&lt;/div&gt;" style="text;html=1;align=center;verticalAlign=middle;resizable=0;points=[];autosize=1;strokeColor=none;fillColor=none;fontSize=12;" vertex="1" parent="1">
          <mxGeometry x="210" y="3130" width="280" height="40" as="geometry" />
        </mxCell>
        <mxCell id="PrAANzAWDWMbfgYv_Zwm-27" value="[Доступ только для врача (RBAC)]&lt;div&gt;[Логировать факт просмотра и изменения]&lt;/div&gt;" style="text;html=1;align=center;verticalAlign=middle;resizable=0;points=[];autosize=1;strokeColor=none;fillColor=none;fontSize=12;" vertex="1" parent="1">
          <mxGeometry x="687.5" y="3130" width="260" height="40" as="geometry" />
        </mxCell>
        <mxCell id="PrAANzAWDWMbfgYv_Zwm-28" value="[Теги: PHI, Sensitive]&lt;div&gt;[Шифрование при передаче]&lt;/div&gt;" style="text;html=1;align=center;verticalAlign=middle;resizable=0;points=[];autosize=1;strokeColor=none;fillColor=none;fontSize=12;" vertex="1" parent="1">
          <mxGeometry x="215" y="2910" width="180" height="40" as="geometry" />
        </mxCell>
        <mxCell id="PrAANzAWDWMbfgYv_Zwm-29" value="[Теги: PHI, Sensitive]&lt;div&gt;[Шифрование при передаче]&lt;/div&gt;" style="text;html=1;align=center;verticalAlign=middle;resizable=0;points=[];autosize=1;strokeColor=none;fillColor=none;fontSize=12;" vertex="1" parent="1">
          <mxGeometry x="440" y="2980" width="180" height="40" as="geometry" />
        </mxCell>
        <mxCell id="PrAANzAWDWMbfgYv_Zwm-30" value="[Теги: PHI, Sensitive]&lt;div&gt;[Шифрование при передаче]&lt;/div&gt;" style="text;html=1;align=center;verticalAlign=middle;resizable=0;points=[];autosize=1;strokeColor=none;fillColor=none;fontSize=12;" vertex="1" parent="1">
          <mxGeometry x="635" y="2910" width="180" height="40" as="geometry" />
        </mxCell>
        <mxCell id="PrAANzAWDWMbfgYv_Zwm-31" value="[PII]&lt;div&gt;Передача в устной форме&lt;/div&gt;&lt;div&gt;(незащищённый канал)&lt;/div&gt;" style="text;html=1;align=center;verticalAlign=middle;resizable=0;points=[];autosize=1;strokeColor=none;fillColor=none;fontSize=12;" vertex="1" parent="1">
          <mxGeometry x="-270" y="338.75" width="170" height="60" as="geometry" />
        </mxCell>
        <mxCell id="PrAANzAWDWMbfgYv_Zwm-33" value="[PII]&lt;div&gt;Передача в устной форме&lt;/div&gt;&lt;div&gt;(незащищённый канал)&lt;/div&gt;" style="text;html=1;align=center;verticalAlign=middle;resizable=0;points=[];autosize=1;strokeColor=none;fillColor=none;fontSize=12;" vertex="1" parent="1">
          <mxGeometry x="-265" y="1070" width="170" height="60" as="geometry" />
        </mxCell>
      </root>
    </mxGraphModel>
  </diagram>
</mxfile>
